<svg width="19" height="20" viewBox="0 0 19 20" fill="none" xmlns="http://www.w3.org/2000/svg">
<path opacity="0.9" d="M18.5333 1.04819V17.9671C18.5333 18.5488 18.0843 19.0158 17.5341 19.0158H12.9143V11.6538H15.2687L15.6207 8.78376H12.9103V6.94964C12.9103 6.11749 13.1287 5.55282 14.2655 5.55282H15.7137V2.9842C15.4629 2.95024 14.6053 2.86957 13.602 2.86957C11.5146 2.86957 10.0826 4.20695 10.0826 6.66518V8.78376H7.7201V11.6538H10.0826V19.02H1.40936C0.85919 19.02 0.410156 18.5487 0.410156 17.9713V1.04819C0.410156 0.470779 0.85919 -0.000488281 1.40936 -0.000488281H17.5301C18.0843 -0.000488281 18.5333 0.470779 18.5333 1.04819Z" fill="#128324"/>
</svg>
