<svg width="19" height="20" viewBox="0 0 19 20" fill="none" xmlns="http://www.w3.org/2000/svg">
<path opacity="0.9" d="M9.87806 4.63198C7.30665 4.63198 5.23254 6.80872 5.23254 9.50737C5.23254 12.206 7.30665 14.3828 9.87806 14.3828C12.4495 14.3828 14.5236 12.206 14.5236 9.50737C14.5236 6.80872 12.4495 4.63198 9.87806 4.63198ZM9.87806 12.677C8.21635 12.677 6.85787 11.2556 6.85787 9.50737C6.85787 7.75919 8.2123 6.33773 9.87806 6.33773C11.5438 6.33773 12.8983 7.75919 12.8983 9.50737C12.8983 11.2556 11.5398 12.677 9.87806 12.677ZM15.7971 4.43255C15.7971 5.06478 15.312 5.56972 14.7136 5.56972C14.1112 5.56972 13.6301 5.06054 13.6301 4.43255C13.6301 3.80456 14.1152 3.29539 14.7136 3.29539C15.312 3.29539 15.7971 3.80456 15.7971 4.43255ZM18.8739 5.58669C18.8052 4.0634 18.4737 2.71407 17.4103 1.60236C16.3511 0.490657 15.0653 0.142718 13.6139 0.0663415C12.1179 -0.0227649 7.63414 -0.0227649 6.1382 0.0663415C4.69077 0.138475 3.40507 0.486414 2.34173 1.59812C1.2784 2.70983 0.950908 4.05915 0.878132 5.58245C0.793227 7.15242 0.793227 11.8581 0.878132 13.428C0.946864 14.9513 1.2784 16.3007 2.34173 17.4124C3.40507 18.5241 4.68673 18.872 6.1382 18.9484C7.63414 19.0375 12.1179 19.0375 13.6139 18.9484C15.0653 18.8763 16.3511 18.5283 17.4103 17.4124C18.4696 16.3007 18.8012 14.9513 18.8739 13.428C18.9588 11.8581 18.9588 7.15666 18.8739 5.58669ZM16.9413 15.1126C16.626 15.9442 16.0155 16.585 15.219 16.9202C14.0263 17.4166 11.1961 17.3021 9.87806 17.3021C8.56001 17.3021 5.7258 17.4124 4.53713 16.9202C3.74469 16.5892 3.13418 15.9485 2.81477 15.1126C2.34173 13.8609 2.4509 10.8906 2.4509 9.50737C2.4509 8.1241 2.34578 5.14965 2.81477 3.90216C3.13014 3.0705 3.74064 2.42978 4.53713 2.09457C5.72984 1.59812 8.56001 1.71269 9.87806 1.71269C11.1961 1.71269 14.0303 1.60236 15.219 2.09457C16.0114 2.42554 16.6219 3.06625 16.9413 3.90216C17.4144 5.15389 17.3052 8.1241 17.3052 9.50737C17.3052 10.8906 17.4144 13.8651 16.9413 15.1126Z" fill="#128324"/>
</svg>
