<svg width="19" height="16" viewBox="0 0 19 16" fill="none" xmlns="http://www.w3.org/2000/svg">
<path opacity="0.9" d="M16.2603 3.96249C16.2718 4.13143 16.2718 4.30041 16.2718 4.46936C16.2718 9.62239 12.5345 15.5599 5.70376 15.5599C3.59934 15.5599 1.64444 14.9203 0 13.81C0.298998 13.8462 0.586457 13.8583 0.896959 13.8583C2.63336 13.8583 4.23181 13.2428 5.50826 12.1929C3.87533 12.1567 2.50688 11.0344 2.0354 9.48966C2.2654 9.52584 2.49538 9.54999 2.73689 9.54999C3.07037 9.54999 3.40388 9.5017 3.71434 9.41726C2.01242 9.05519 0.735938 7.48636 0.735938 5.59168V5.54342C1.2304 5.83306 1.80542 6.01408 2.41485 6.03819C1.41439 5.33822 0.758946 4.1435 0.758946 2.79187C0.758946 2.0678 0.942904 1.40406 1.26491 0.82479C3.09334 3.19012 5.84174 4.73481 8.92357 4.90379C8.86609 4.61415 8.83158 4.31248 8.83158 4.01078C8.83158 1.86264 10.4875 0.112793 12.5459 0.112793C13.6154 0.112793 14.5813 0.583446 15.2598 1.34373C16.0992 1.17479 16.9042 0.848935 17.6172 0.402428C17.3412 1.30755 16.7547 2.06784 15.9843 2.55053C16.7318 2.46609 17.4562 2.24882 18.1232 1.94715C17.6173 2.71947 16.9848 3.40732 16.2603 3.96249Z" fill="#128324"/>
</svg>
