<svg width="26" height="20" viewBox="0 0 26 20" fill="none" xmlns="http://www.w3.org/2000/svg">
<path opacity="0.9" d="M25.4612 2.97558C25.1647 1.80413 24.2913 0.881538 23.1824 0.568443C21.1723 -0.000488281 13.1122 -0.000488281 13.1122 -0.000488281C13.1122 -0.000488281 5.05211 -0.000488281 3.042 0.568443C1.93304 0.881588 1.05964 1.80413 0.763206 2.97558C0.224609 5.09889 0.224609 9.52898 0.224609 9.52898C0.224609 9.52898 0.224609 13.9591 0.763206 16.0824C1.05964 17.2538 1.93304 18.138 3.042 18.4511C5.05211 19.02 13.1122 19.02 13.1122 19.02C13.1122 19.02 21.1723 19.02 23.1824 18.4511C24.2913 18.138 25.1647 17.2538 25.4612 16.0824C25.9998 13.9591 25.9998 9.52898 25.9998 9.52898C25.9998 9.52898 25.9998 5.09889 25.4612 2.97558ZM10.4761 13.5512V5.50679L17.2127 9.52908L10.4761 13.5512Z" fill="#128324"/>
</svg>
