<svg width="73" height="37" viewBox="0 0 73 37" fill="none" xmlns="http://www.w3.org/2000/svg">
<path d="M23.7282 36.1383H20.7421V24.6289H23.7282V36.1383Z" fill="#8B8B8B"/>
<path d="M47.8058 27.9262C47.6828 27.8655 46.7218 27.3117 45.2936 27.3117C43.3631 27.3117 42.0238 28.618 42.0238 30.3816C42.0238 32.0917 43.3054 33.4542 45.2936 33.4542C46.6972 33.4542 47.6743 32.9114 47.8058 32.8434V35.9325C47.4312 36.0337 46.4107 36.3419 45.0846 36.3419C41.7258 36.3419 38.7776 34.0899 38.7776 30.3807C38.7776 26.9447 41.4449 24.424 45.0846 24.424C46.4844 24.424 47.523 24.7552 47.8058 24.8371V27.9262ZM16.637 27.9262C16.5168 27.8655 15.5568 27.3117 14.1286 27.3117C12.1943 27.3117 10.8559 28.618 10.8559 30.3816C10.8559 32.0917 12.1385 33.4542 14.1286 33.4542C15.5322 33.4542 16.5083 32.9114 16.637 32.8434V35.9325C16.2662 36.0337 15.2466 36.3419 13.9129 36.3419C10.557 36.3419 7.61255 34.0899 7.61255 30.3807C7.61255 26.9447 10.2799 24.424 13.9138 24.424C15.3194 24.424 16.356 24.7552 16.637 24.8371V27.9262ZM57.1991 27.355C55.4275 27.355 54.1118 28.7109 54.1118 30.3816C54.1118 32.0559 55.4275 33.411 57.1991 33.411C58.9688 33.411 60.2883 32.0559 60.2883 30.3816C60.2883 28.7109 58.9688 27.355 57.1991 27.355ZM63.4521 30.3816C63.4521 33.674 60.8387 36.3419 57.2 36.3419C53.5594 36.3419 50.9498 33.6741 50.9498 30.3807C50.9498 27.0946 53.5604 24.424 57.1991 24.424C60.8388 24.424 63.4521 27.0946 63.4521 30.3816ZM35.0519 27.2446C35.0074 27.2308 33.7504 26.8931 32.7175 26.8931C31.521 26.8931 30.8702 27.2832 30.8702 27.8361C30.8702 28.5371 31.748 28.7818 32.2389 28.9326L33.0627 29.1875C35.0017 29.7873 35.8842 31.078 35.8842 32.48C35.8842 35.3713 33.2699 36.3428 30.9847 36.3428C29.3966 36.3428 27.9087 36.0576 27.7621 36.0282V33.3787C28.0251 33.4431 29.2774 33.8074 30.5817 33.8074C32.0677 33.8074 32.7506 33.3843 32.7506 32.733C32.7506 32.1497 32.1594 31.813 31.4188 31.5867C31.2391 31.5278 30.9667 31.445 30.7813 31.3861C29.1185 30.8746 27.7319 29.9234 27.7319 28.0192C27.7319 25.8665 29.389 24.4212 32.1415 24.4212C33.5952 24.4212 34.9629 24.7644 35.0519 24.7874V27.2436V27.2446Z" fill="#757575"/>
<path d="M4.44622 12.2598C4.44622 11.4668 3.78034 10.8237 2.96406 10.8237C2.14779 10.8237 1.48096 11.4668 1.48096 12.2588V15.2809C1.49073 15.657 1.65122 16.0146 1.9282 16.2772C2.20518 16.5399 2.57673 16.6869 2.96359 16.6869C3.35045 16.6869 3.72199 16.5399 3.99897 16.2772C4.27596 16.0146 4.43645 15.657 4.44622 15.2809V12.2598ZM12.5891 8.29484C12.5891 7.91239 12.4329 7.5456 12.1548 7.27517C11.8768 7.00474 11.4997 6.85282 11.1065 6.85282C10.7133 6.85282 10.3361 7.00474 10.0581 7.27517C9.78005 7.5456 9.62384 7.91239 9.62384 8.29484V15.2809C9.62384 15.6633 9.78005 16.0301 10.0581 16.3005C10.3361 16.571 10.7133 16.7229 11.1065 16.7229C11.4997 16.7229 11.8768 16.571 12.1548 16.3005C12.4329 16.0301 12.5891 15.6633 12.5891 15.2809V8.29388V8.29484ZM20.7329 2.869C20.7329 2.07601 20.067 1.43204 19.2508 1.43204C18.4336 1.43204 17.7677 2.07601 17.7677 2.869V18.152C17.7774 18.5281 17.9379 18.8857 18.2149 19.1484C18.4919 19.411 18.8634 19.5581 19.2503 19.5581C19.6372 19.5581 20.0087 19.411 20.2857 19.1484C20.5627 18.8857 20.7232 18.5281 20.7329 18.152V2.869ZM28.8758 8.29484C28.8758 7.91239 28.7196 7.5456 28.4416 7.27517C28.1635 7.00474 27.7864 6.85282 27.3932 6.85282C27 6.85282 26.6228 7.00474 26.3448 7.27517C26.0668 7.5456 25.9106 7.91239 25.9106 8.29484V15.2809C25.9106 15.6633 26.0668 16.0301 26.3448 16.3005C26.6228 16.571 27 16.7229 27.3932 16.7229C27.7864 16.7229 28.1635 16.571 28.4416 16.3005C28.7196 16.0301 28.8758 15.6633 28.8758 15.2809V8.29388V8.29484ZM37.0102 12.2598C37.0104 11.8793 36.8553 11.5143 36.579 11.2451C36.3027 10.9758 35.9277 10.8242 35.5365 10.8237C35.1445 10.8235 34.7684 10.9744 34.4906 11.2434C34.2127 11.5124 34.0559 11.8776 34.0544 12.2588V15.2809C34.0544 15.6621 34.2101 16.0277 34.4872 16.2973C34.7644 16.5669 35.1403 16.7183 35.5323 16.7183C35.9242 16.7183 36.3002 16.5669 36.5773 16.2973C36.8545 16.0277 37.0102 15.6621 37.0102 15.2809V12.2598ZM45.1569 8.29484C45.1471 7.91991 44.9871 7.5635 44.711 7.30167C44.4349 7.03985 44.0646 6.8933 43.679 6.8933C43.2933 6.8933 42.923 7.03985 42.6469 7.30167C42.3708 7.5635 42.2108 7.91991 42.201 8.29484V15.2809C42.201 15.6621 42.3568 16.0277 42.6339 16.2973C42.9111 16.5669 43.287 16.7183 43.679 16.7183C44.0709 16.7183 44.4468 16.5669 44.724 16.2973C45.0011 16.0277 45.1569 15.6621 45.1569 15.2809V8.29388V8.29484ZM53.3054 2.869C53.3054 2.48778 53.1497 2.12216 52.8725 1.85259C52.5954 1.58303 52.2195 1.43159 51.8275 1.43159C51.4355 1.43159 51.0596 1.58303 50.7825 1.85259C50.5053 2.12216 50.3496 2.48778 50.3496 2.869V18.152C50.3409 18.3461 50.3726 18.5398 50.4429 18.7216C50.5133 18.9034 50.6207 19.0695 50.7588 19.2098C50.8969 19.3502 51.0628 19.4618 51.2465 19.5381C51.4301 19.6144 51.6278 19.6538 51.8275 19.6538C52.0272 19.6538 52.2249 19.6144 52.4085 19.5381C52.5922 19.4618 52.7581 19.3502 52.8962 19.2098C53.0343 19.0695 53.1417 18.9034 53.2121 18.7216C53.2824 18.5398 53.3141 18.3461 53.3054 18.152V2.869ZM61.4521 8.29484C61.4521 7.50093 60.7909 6.85602 59.9557 6.85602C59.5638 6.85627 59.188 7.00785 58.911 7.27747C58.6339 7.5471 58.4783 7.91269 58.4783 8.29388V15.2809C58.4783 16.0785 59.1404 16.7215 59.9557 16.7215C60.7909 16.7215 61.4521 16.0785 61.4521 15.2809V8.29388V8.29484ZM69.5836 12.2598C69.5836 11.8782 69.4277 11.5122 69.1503 11.2424C68.8729 10.9725 68.4966 10.821 68.1043 10.821C67.7119 10.821 67.3357 10.9725 67.0582 11.2424C66.7808 11.5122 66.625 11.8782 66.625 12.2598V15.2809C66.625 16.0785 67.288 16.7224 68.1043 16.7224C68.9196 16.7224 69.5826 16.0785 69.5826 15.2809V12.2598H69.5836Z" fill="#757575"/>
<path d="M67.8745 34.6216V34.8019H67.3467V36.1367H67.1292V34.8028H66.5995V34.6216H67.8745ZM67.9852 34.6216H68.3247L68.791 35.8645H68.7986L69.2498 34.6225H69.5827V36.1367H69.3604V34.8948H69.3529L68.8799 36.1367H68.6747L68.2131 34.8948H68.2027V36.1367H67.9852V34.6216Z" fill="#757575"/>
</svg>
