<svg width="124" height="38" viewBox="0 0 124 38" fill="none" xmlns="http://www.w3.org/2000/svg">
<g clip-path="url(#clip0_1862_5916)">
<path d="M44.2684 2.60793H51.8212V28.9942H44.2684V2.60793ZM55.7844 28.9942V2.60793H76.5542V7.72376H63.3369V13.1684H75.4959V18.2851H63.3369V23.876H76.5542V28.9942H55.7844ZM80.7857 28.9942V2.60793H101.55V7.72376H88.3365V13.1684H100.491V18.2851H88.3365V23.876H101.55V28.9942H80.7857ZM105.779 28.9942V2.60793H126.549V7.72376H113.336V13.1684H125.492V18.2851H113.336V23.876H126.549V28.9942H105.779ZM20.329 18.4487C20.2292 20.3119 20.2046 22.0362 20.0621 23.904C20.824 23.971 21.684 24.0354 22.4966 23.9208L22.2535 18.714L22.2108 18.4662C21.5922 18.4895 21.0065 18.5136 20.3287 18.4487H20.329ZM15.5699 13.2167C14.6313 13.6719 13.2504 14.36 13.4028 15.6058C13.6039 16.2859 14.3649 16.7255 14.9671 17.0051C18.2957 18.4244 22.7145 18.4727 26.2287 17.4134C27.0962 17.0898 28.261 16.6205 28.4204 15.5918C28.411 14.742 27.4813 14.2069 26.8134 13.8814V13.8411C27.0463 13.7522 27.3142 13.6719 27.5553 13.6474V13.6248C26.3785 13.4206 25.2419 13.1226 24.1019 12.831C24.3213 13.3151 24.4799 13.8257 24.6629 14.329C25.0053 14.2228 25.3566 14.1423 25.7262 14.0933C26.3273 14.3199 27.1883 14.644 27.2737 15.3713C27.3405 16.0517 26.5711 16.383 26.0853 16.6593C23.5075 17.5669 20.6072 17.6556 17.9188 16.9654C17.1762 16.7391 16.1047 16.4483 16.0126 15.5332C16.5397 14.3287 17.9029 14.0779 19.0414 13.7855C18.4563 13.4206 17.8612 13.0977 17.2941 12.6917C16.6817 12.7243 16.1223 12.9838 15.5699 13.2167ZM21.265 5.94856L20.9313 6.98526L19.258 11.6237C19.677 11.665 20.1959 11.6237 20.6072 11.665V11.7033L20.3625 16.95L20.4047 17.0051C20.94 17.0559 21.6083 17.0818 22.1539 16.9918V16.9092L21.9355 11.8202L21.9683 11.648L23.4405 11.6237C22.7063 9.74606 21.9938 7.84953 21.3081 5.94856H21.2647H21.265ZM20.4874 3.61803C21.7185 2.80649 22.823 3.94119 23.7769 4.58963C27.4649 7.46243 30.9451 10.7508 33.5973 14.4643C33.9313 14.9433 34.0824 15.6874 33.7827 16.2297C33.0953 17.3394 32.1675 18.3523 31.2882 19.3809V19.4371C29.0955 21.6958 26.7799 24.0179 24.2777 25.9308C23.0564 26.6499 21.9355 28.2205 20.3625 27.2475C16.7808 24.7146 13.3534 21.5656 10.448 18.1881C9.95541 17.4456 9.18627 16.8371 8.84365 15.9947C8.36553 14.8544 9.41966 14.0361 10.0227 13.1772C12.9852 9.64153 16.6646 6.17443 20.4876 3.61803H20.4874ZM23.5743 0.241227L22.2111 -1.62847C22.0438 -1.72694 21.8357 -1.89027 21.6507 -1.93811C21.2488 -2.10681 20.8153 -1.90264 20.4871 -1.66184L18.0206 1.44733C14.063 6.19053 9.37819 10.6194 4.26736 14.0144C3.8635 14.3199 3.26289 14.6181 3.13776 15.1216C3.0037 15.5743 3.24746 15.9481 3.538 16.2299C7.63062 18.9578 11.5434 22.1965 15.0262 25.8899C15.6444 26.5185 16.1457 27.1436 16.7504 27.7337C17.7691 29.0455 18.9657 30.3678 19.9022 31.7751C20.1959 32.0721 20.2463 32.5605 20.7053 32.7051C21.0648 32.8255 21.5087 32.9072 21.8516 32.7051L22.1925 32.3738C26.4272 26.5685 31.7979 21.3544 37.7984 17.1451C38.3988 16.6259 39.5463 16.4329 39.5626 15.4695C39.52 15.025 39.2526 14.587 38.8581 14.3444L38.76 14.3287C35.6721 12.2959 32.7949 9.99689 30.0843 7.38869L27.089 4.36073C25.8755 3.05873 24.6962 1.61673 23.5743 0.241227ZM20.0449 2.90449C21.2488 1.99776 22.7637 2.75073 23.7766 3.58489C24.8375 4.36959 25.9425 5.25883 26.9125 6.16743L27.0888 6.26543C29.7747 8.67716 32.269 11.3575 34.3182 14.1911C34.6505 14.6841 34.9442 15.2429 34.7585 15.8974C34.0752 17.5506 32.6866 18.8682 31.4726 20.3121C28.846 23.0479 26.0751 25.6953 22.9735 27.8075C22.3461 28.2368 21.4996 28.6335 20.748 28.2928C18.4647 27.1362 16.5394 25.2415 14.5411 23.5153C12.2235 21.4356 9.89755 19.0143 8.14105 16.4812C7.87993 16.1259 7.80639 15.6874 7.81411 15.2187C8.03978 14.3444 8.65896 13.6248 9.24462 12.8877C11.3201 10.328 13.8624 7.89993 16.4297 5.68186C16.489 5.62516 16.5985 5.50406 16.6916 5.44643C17.7942 4.52383 18.8895 3.70716 20.0449 2.90449Z" fill="#757575"/>
</g>
<defs>
<clipPath id="clip0_1862_5916">
<rect width="124" height="38" fill="white"/>
</clipPath>
</defs>
</svg>
