<svg width="36" height="47" viewBox="0 0 36 47" fill="none" xmlns="http://www.w3.org/2000/svg">
<path d="M29.9399 15.5916L29.9003 15.5027L29.8855 15.4065C28.4844 6.29914 22.2389 2.04349 16.0843 2.12913C9.92585 2.21484 3.68844 6.64666 2.27129 15.3543V22.5474C2.39204 26.043 4.51949 33.5365 11.9013 36.023C11.9122 36.022 11.9279 36.0201 11.949 36.0163C12.0326 36.0013 12.1583 35.9653 12.3285 35.8965C12.6678 35.7593 13.1131 35.521 13.6346 35.1814C14.674 34.5046 15.9484 33.4702 17.1846 32.1823C19.6808 29.5819 21.8859 26.093 21.8859 22.5598H23.3388C23.3388 26.6544 20.822 30.4912 18.2328 33.1884C16.9264 34.5493 15.5674 35.6567 14.4274 36.399C13.8592 36.7689 13.3283 37.0595 12.873 37.2435C12.6459 37.3353 12.4197 37.408 12.2054 37.4464C12.0039 37.4825 11.7426 37.5017 11.4857 37.4161C3.21956 34.6615 0.944363 26.3527 0.818763 22.584L0.818359 22.5719V15.2383L0.827485 15.1813C2.33406 5.76579 9.1594 0.772427 16.0641 0.676341C22.9632 0.580332 29.772 5.37301 31.3066 15.0895L31.335 15.1538C31.3788 15.253 31.4426 15.3982 31.5232 15.5829C31.6845 15.9522 31.9128 16.4793 32.1817 17.1118C32.719 18.376 33.4197 20.0643 34.0703 21.755C34.7184 23.4394 35.326 25.1501 35.6692 26.4504C35.838 27.0901 35.9577 27.6843 35.9678 28.1422C35.9727 28.3604 35.9563 28.6388 35.8407 28.8892C35.7781 29.0249 35.6753 29.1762 35.5093 29.2923C35.3377 29.4125 35.1451 29.4622 34.9623 29.4622H31.33V36.7269C31.33 37.2252 31.0548 37.6086 30.7933 37.864C30.5247 38.1265 30.1825 38.3422 29.849 38.5156C29.1779 38.8646 28.3936 39.1179 27.8738 39.2478L27.7871 39.2695H20.7962V46.5342H19.3433V37.8166H27.6059C28.0513 37.6991 28.6719 37.49 29.1787 37.2265C29.4505 37.0851 29.6532 36.9467 29.778 36.8247C29.844 36.7602 29.8688 36.7202 29.8771 36.704V28.0093H34.5048C34.4776 27.7296 34.3989 27.331 34.2643 26.8211C33.9425 25.6016 33.3589 23.9523 32.7142 22.2768C32.072 20.6076 31.3783 18.936 30.8445 17.6802C30.5778 17.0527 30.3513 16.5299 30.1917 16.1642C30.1119 15.9814 30.0487 15.8379 30.0057 15.7402L29.9565 15.629L29.9399 15.5916C29.9398 15.5915 29.9399 15.5916 30.6035 15.2961L29.9399 15.5916Z" fill="#128324"/>
<path fill-rule="evenodd" clip-rule="evenodd" d="M25.4456 16.5301C25.4456 18.4158 23.9169 19.9445 22.0312 19.9445C20.1455 19.9445 18.6168 18.4158 18.6168 16.5301C18.6168 14.6444 20.1455 13.1157 22.0312 13.1157C23.9169 13.1157 25.4456 14.6444 25.4456 16.5301ZM23.9927 16.5301C23.9927 17.6134 23.1145 18.4915 22.0312 18.4915C20.9479 18.4915 20.0697 17.6134 20.0697 16.5301C20.0697 15.4468 20.9479 14.5686 22.0312 14.5686C23.1145 14.5686 23.9927 15.4468 23.9927 16.5301Z" fill="#128324"/>
<path fill-rule="evenodd" clip-rule="evenodd" d="M9.82716 24.2678C8.88903 23.0205 7.63956 22.3804 6.81714 22.1748L7.16953 20.7653C8.28435 21.044 9.83178 21.8568 10.9883 23.3944C11.7327 24.3841 12.3006 25.6548 12.4982 27.2392C13.2354 26.3974 14.2877 25.5466 15.7493 24.8159C17.458 23.9615 18.3355 23.2832 18.7507 22.8254C18.9581 22.5968 19.021 22.455 19.0362 22.4047C19.0376 22.4002 19.0385 22.397 19.039 22.3949L19.0396 22.3922C19.0387 22.3987 19.0263 22.4859 19.1021 22.5995L19.7376 22.1758C17.3864 21.3032 15.7109 19.0397 15.7109 16.3848C15.7109 12.9744 18.4756 10.2098 21.8859 10.2098C25.2963 10.2098 28.0609 12.9744 28.0609 16.3848C28.0609 19.7951 25.2963 22.5598 21.8859 22.5598C21.4062 22.5598 20.9392 22.505 20.4909 22.4015C20.4917 22.5476 20.4674 22.6918 20.4267 22.8261C20.3285 23.1503 20.122 23.4762 19.8269 23.8016C19.2372 24.4516 18.1774 25.2262 16.3991 26.1154C13.0963 27.7668 12.4418 29.9204 12.4418 30.5509H10.9889C10.9889 30.4097 11.0016 30.2534 11.029 30.0847L10.9969 30.0799C11.4062 27.3516 10.7486 25.4928 9.82716 24.2678ZM21.8859 21.1068C24.4938 21.1068 26.6079 18.9927 26.6079 16.3848C26.6079 13.7769 24.4938 11.6627 21.8859 11.6627C19.278 11.6627 17.1639 13.7769 17.1639 16.3848C17.1639 18.9927 19.278 21.1068 21.8859 21.1068Z" fill="#128324"/>
<path d="M1.18194 32.0026L1.18159 30.9141L2.63465 32.0021L1.18194 32.0026Z" fill="#128324"/>
<path d="M1.18182 46.533V32.0036H2.63476V46.533H1.18182Z" fill="#128324"/>
</svg>
