<svg width="48" height="49" viewBox="0 0 48 49" fill="none" xmlns="http://www.w3.org/2000/svg">
<path d="M16.2265 41.2502L15.6451 41.1484C15.1606 43.9205 17.292 46.4647 20.1183 46.4647V45.8747C17.6665 45.8747 15.8034 43.6678 16.2265 41.2502L16.2265 41.2502Z" fill="#128324"/>
<path d="M28.8159 7.02948C28.8159 4.6588 26.9042 2.73047 24.5538 2.73047C22.1996 2.73047 20.2852 4.65915 20.2852 7.02948C20.2852 9.39707 22.1997 11.3234 24.5538 11.3234C26.9042 11.323 28.8159 9.39716 28.8159 7.02948V7.02948ZM21.0231 7.02948C21.0231 5.06566 22.6068 3.46802 24.5538 3.46802C26.4973 3.46802 28.078 5.06566 28.078 7.02948C28.078 8.9902 26.4973 10.5854 24.5538 10.5854C22.6068 10.5854 21.0231 8.98985 21.0231 7.02948V7.02948Z" fill="#128324"/>
<path d="M41.3708 4.66822C38.0486 4.66822 35.3376 7.32201 35.1968 10.6349C30.9375 11.1873 30.1526 16.8108 30.0234 18.2788C29.0203 18.0074 27.9995 18.2233 27.0543 18.6343C26.7323 18.3095 25.9306 17.615 24.8546 17.4236V13.2404C28.1229 13.0801 30.735 10.3589 30.735 7.02719C30.735 3.58985 27.9616 0.792969 24.5529 0.792969C21.1412 0.792969 18.3656 3.58994 18.3656 7.02719C18.3656 10.3135 20.9087 13.0069 24.117 13.2339V17.3901C23.3418 17.437 22.5928 17.7639 21.8876 18.3901C21.6014 18.2819 21.0194 18.1008 20.3104 18.1008C19.8897 18.1008 19.3997 18.1726 18.8956 18.3743C18.7032 17.0822 17.5369 10.8993 12.8582 10.5994C12.6992 7.30309 9.99538 4.66855 6.68534 4.66855C3.27705 4.66855 0.503906 7.46552 0.503906 10.9031C0.503906 14.3376 3.2774 17.1319 6.68534 17.1319C9.95124 17.1319 12.6282 14.5695 12.8517 11.338C17.3169 11.6832 18.1849 18.616 18.1935 18.6881L18.3163 18.674C17.7604 19.0212 17.2121 19.5543 16.7439 20.3919L16.6308 20.5933L20.1919 23.9312V26.282C17.8308 27.0041 15.9915 28.9869 15.5363 31.5182L13.4756 40.7079C12.7114 44.858 15.8983 48.6783 20.1184 48.6783H28.8544C33.0579 48.6783 36.2583 44.8797 35.4955 40.6968L33.4462 31.5293C32.9782 28.9944 31.1389 27.013 28.7857 26.2867V23.9205L32.3179 20.4308L32.2465 20.2501C32.2231 20.1894 31.802 19.1611 30.7409 18.5694C30.8006 17.7621 31.3727 11.9765 35.2082 11.38C35.4517 14.5918 38.1196 17.1318 41.3714 17.1318C44.7804 17.1318 47.5535 14.3376 47.5535 10.903C47.5532 7.46509 44.7797 4.66812 41.3707 4.66812L41.3708 4.66822ZM6.68578 16.3941C3.684 16.3941 1.2419 13.931 1.2419 10.9033C1.2419 7.87224 3.68365 5.40666 6.68578 5.40666C9.69135 5.40666 12.1358 7.87224 12.1358 10.9033C12.1358 13.931 9.691 16.3941 6.68578 16.3941ZM19.1037 7.02787C19.1037 3.99714 21.5486 1.53156 24.5531 1.53156C27.5549 1.53156 29.9977 3.99714 29.9977 7.02787C29.9977 10.0555 27.5549 12.5186 24.5531 12.5186C21.5486 12.5186 19.1037 10.0555 19.1037 7.02787V7.02787ZM32.867 31.6475L34.9164 40.8142C35.6067 44.6036 32.7042 48.0881 28.8539 48.0881L20.1179 48.0884C16.2512 48.0884 13.3619 44.5835 14.0537 40.8258L16.1144 31.6353C16.6451 28.6842 19.2083 26.5731 22.1634 26.5731H26.8C29.7256 26.5731 32.3166 28.6635 32.867 31.6473V31.6475ZM20.7828 26.1267V24.0967H28.195V26.1271C27.7574 26.0357 27.2384 25.9829 26.8035 25.9829H22.1624C21.6924 25.9829 21.1693 26.046 20.7828 26.1267V26.1267ZM31.6161 20.295L28.3737 23.4988H20.5925L17.3753 20.4822C18.1029 19.2939 19.0901 18.6915 20.3108 18.6915C20.9743 18.6915 21.5105 18.856 22.005 19.0891C22.1026 19.0184 23.006 17.9618 24.3029 17.9618C25.7088 17.9618 26.7484 19.1694 26.7584 19.1818L26.9046 19.3542L27.1091 19.2583C29.3054 18.2294 30.8657 18.8628 31.6161 20.2949L31.6161 20.295ZM41.3717 16.3945C38.3671 16.3945 35.9223 13.9314 35.9223 10.9038C35.9223 7.87268 38.3671 5.4071 41.3717 5.4071C44.3734 5.4071 46.8162 7.87268 46.8162 10.9038C46.8162 13.9314 44.3734 16.3945 41.3717 16.3945Z" fill="#128324"/>
<path d="M41.3692 6.60156C39.0161 6.60156 37.1016 8.53024 37.1016 10.9002C37.1016 13.2678 39.0161 15.1945 41.3692 15.1945C43.7196 15.1945 45.6321 13.2683 45.6321 10.9002C45.6321 8.53015 43.72 6.60156 41.3692 6.60156ZM41.3692 14.4565C39.423 14.4565 37.8392 12.8613 37.8392 10.9002C37.8392 8.93676 39.423 7.33912 41.3692 7.33912C43.3127 7.33912 44.8941 8.93676 44.8941 10.9002C44.8941 12.8613 43.3127 14.4565 41.3692 14.4565Z" fill="#128324"/>
<path d="M24.269 28.6232C22.1911 28.8504 20.4697 30.1514 19.6648 32.1036C18.8607 34.054 19.1707 36.1947 20.4928 37.8302C22.0749 39.7875 21.7438 41.5654 21.7876 41.8575V43.7607C21.7876 44.3238 22.2459 44.7817 22.8086 44.7817H23.1107V45.6842C23.1107 46.0476 23.4062 46.3435 23.77 46.3435H26.0463C26.4101 46.3435 26.7056 46.0476 26.7056 45.6842V44.7817H27.0077C27.5704 44.7817 28.0287 44.3238 28.0287 43.7607V41.8575H28.0308C28.0773 41.523 27.7194 39.703 29.2118 37.9661C30.6702 36.2691 30.9929 33.945 30.0542 31.8998C29.0232 29.6549 26.8011 28.3439 24.269 28.6232H24.269ZM25.9673 45.6051H23.8483V44.7826H25.9673V45.6051ZM27.29 43.7602C27.29 43.9161 27.1631 44.0434 27.0069 44.0434H22.8083C22.6521 44.0434 22.5252 43.9161 22.5252 43.7602V43.3192H24.9066V42.5813H22.5252V41.8571H27.2901L27.29 43.7602ZM29.3835 32.2074C30.2008 33.9874 29.9204 36.0099 28.6521 37.4851C27.8163 38.4575 27.3387 39.7413 27.2952 41.1196H25.2762V36.5406L27.8211 33.9957L27.2994 33.474L24.9072 35.8661L22.5158 33.474L21.9941 33.9957L24.5382 36.5406V41.1196H22.522C22.483 39.7934 21.9816 38.4988 21.0657 37.3664C19.9158 35.9444 19.6471 34.0822 20.3468 32.3849C21.0464 30.6867 22.543 29.5546 24.3493 29.3573C26.5558 29.1156 28.4862 30.2522 29.3834 32.2073L29.3835 32.2074Z" fill="#128324"/>
<path d="M6.68594 6.60156C4.33556 6.60156 2.42383 8.53024 2.42383 10.9002C2.42383 13.2678 4.33556 15.1945 6.68594 15.1945C9.03905 15.1945 10.9536 13.2683 10.9536 10.9002C10.9536 8.53015 9.03905 6.60156 6.68594 6.60156ZM6.68594 14.4565C4.74243 14.4565 3.16174 12.8613 3.16174 10.9002C3.16174 8.93676 4.74243 7.33912 6.68594 7.33912C8.63218 7.33912 10.216 8.93676 10.216 10.9002C10.2156 12.8613 8.63183 14.4565 6.68594 14.4565Z" fill="#128324"/>
<path d="M24.7815 9.81905L24.7905 9.33077C25.6346 9.30594 26.3129 8.8549 26.3319 8.0097C26.3515 7.14383 25.7953 6.82414 24.8795 6.58138L24.8615 6.58172L24.8926 5.3145C25.2346 5.37726 25.5502 5.51141 25.8343 5.73107L26.2874 5.12657C25.8564 4.81311 25.4036 4.63381 24.9101 4.58484L24.9236 4.24001L24.4925 4.22656L24.4835 4.56692C23.6601 4.58416 23.029 5.0583 22.9911 5.88348C22.9715 6.74453 23.5849 7.05245 24.4126 7.27623L24.3815 8.57938C23.9905 8.51213 23.6088 8.30179 23.2443 7.96592L22.7422 8.53903C23.2132 8.98249 23.7594 9.23767 24.3636 9.30939L24.3501 9.80181L24.7815 9.81905ZM24.8439 7.40105C25.2194 7.52932 25.5301 7.66002 25.5191 8.05037C25.4981 8.42072 25.1798 8.5752 24.8129 8.61451L24.8439 7.40105ZM23.8087 5.82486C23.8187 5.48244 24.117 5.30312 24.4659 5.28761L24.4394 6.45181C24.0732 6.32008 23.8087 6.2025 23.8087 5.8249L23.8087 5.82486Z" fill="#128324"/>
<path d="M41.6994 10.4606H41.6818L41.7129 9.19341C42.0549 9.25617 42.3705 9.39031 42.6546 9.60997L43.1077 9.00548C42.6767 8.69202 42.2239 8.51306 41.7304 8.46375L41.7439 8.11892L41.3128 8.10547L41.3039 8.44582C40.4804 8.46306 39.8493 8.93721 39.8114 9.76239C39.7918 10.6234 40.4053 10.9314 41.2329 11.1551L41.2019 12.4583C40.8108 12.391 40.4291 12.1807 40.0646 11.8448L39.5625 12.4179C40.0335 12.8614 40.5797 13.1166 41.1839 13.1883L41.1704 13.6807L41.6015 13.6987L41.6104 13.2104C42.4546 13.1855 43.1329 12.7345 43.1519 11.8893C43.1715 11.0231 42.6156 10.7037 41.6994 10.4606L41.6994 10.4606ZM41.2598 10.3306C40.8932 10.1985 40.6291 10.0813 40.6291 9.70371C40.6391 9.36129 40.9373 9.18198 41.2863 9.16647L41.2598 10.3306ZM41.6329 12.4938L41.6639 11.2803C42.0394 11.4086 42.3501 11.5393 42.3391 11.9296C42.3184 12.2996 41.9998 12.4541 41.6329 12.4938L41.6329 12.4938Z" fill="#128324"/>
<path d="M7.04122 10.4606H7.02363L7.05467 9.19341C7.39674 9.25617 7.71226 9.39031 7.99641 9.60997L8.44952 9.00548C8.01848 8.69202 7.56568 8.51306 7.07221 8.46375L7.08566 8.11892L6.65462 8.10547L6.64566 8.44582C5.8222 8.46306 5.19111 8.93721 5.15324 9.76239C5.13359 10.6234 5.74705 10.9314 6.57468 11.1551L6.54365 12.4583C6.15261 12.391 5.77088 12.1807 5.40637 11.8448L4.9043 12.4179C5.37534 12.8614 5.92152 13.1166 6.52568 13.1883L6.51224 13.6807L6.94328 13.6987L6.95224 13.2104C7.79639 13.1855 8.47467 12.7345 8.49365 11.8893C8.5133 11.0231 7.95709 10.7037 7.04122 10.4606L7.04122 10.4606ZM6.60155 10.3306C6.235 10.1985 5.97086 10.0813 5.97086 9.70371C5.98086 9.36129 6.27914 9.18198 6.62811 9.16647L6.60155 10.3306ZM6.97466 12.4938L7.0057 11.2803C7.38122 11.4086 7.69191 11.5393 7.68088 11.9296C7.65984 12.2996 7.34156 12.4541 6.97466 12.4938L6.97466 12.4938Z" fill="#128324"/>
</svg>
