<svg width="47" height="53" viewBox="0 0 47 53" fill="none" xmlns="http://www.w3.org/2000/svg">
<path d="M23.5913 13.3833C23.5712 13.3841 23.551 13.3863 23.5308 13.3893C21.6675 13.6862 19.9329 15.0219 18.5531 16.9333C17.1734 18.8448 16.141 21.3549 15.736 24.1133C14.9264 29.6302 16.6842 36.1774 23.3213 40.6353V40.6356C23.4978 40.7542 23.7285 40.7542 23.905 40.6356C30.5421 36.1782 32.2999 29.6312 31.4904 24.1137C31.0858 21.3553 30.0534 18.8452 28.6736 16.9336C27.2938 15.0221 25.5588 13.6865 23.6956 13.3897V13.3893C23.6612 13.3837 23.626 13.3818 23.5913 13.3833H23.5913ZM23.6134 14.4426C25.0609 14.7055 26.5786 15.8201 27.8245 17.5461C29.094 19.3051 30.0736 21.6709 30.4543 24.2655C31.2033 29.371 29.6784 35.3235 23.613 39.5555C17.5481 35.3238 16.0228 29.3714 16.7717 24.2655C17.1524 21.6709 18.1321 19.3047 19.4016 17.5461C20.6475 15.8201 22.1652 14.7051 23.6126 14.4426H23.6134Z" fill="#128324"/>
<path d="M23.6036 21.1059C23.3149 21.1104 23.0842 21.3478 23.0879 21.6369V39.3171V39.3167C23.0861 39.4569 23.1403 39.5919 23.2386 39.6918C23.3373 39.7916 23.4716 39.8477 23.6114 39.8477C23.7516 39.8477 23.8859 39.7916 23.9842 39.6918C24.0829 39.5919 24.1372 39.4569 24.1349 39.3167V21.6365C24.1372 21.4948 24.0818 21.3587 23.9816 21.2585C23.8814 21.1586 23.7453 21.1033 23.6036 21.1055L23.6036 21.1059Z" fill="#128324"/>
<path d="M18.95 27.3011C18.7563 27.3082 18.582 27.4219 18.4975 27.5965C18.413 27.7712 18.4321 27.9783 18.5473 28.135L22.9674 34.3219H22.967C23.0467 34.4374 23.1697 34.5163 23.3077 34.5403C23.446 34.5646 23.5885 34.5324 23.7025 34.4509C23.817 34.369 23.8936 34.2453 23.9153 34.1065C23.9374 33.9678 23.9026 33.8261 23.8192 33.7132L19.3991 27.5258C19.2974 27.3796 19.1284 27.2948 18.95 27.3011L18.95 27.3011Z" fill="#128324"/>
<path d="M26.7628 23.1016C26.5901 23.1023 26.4289 23.1887 26.3324 23.3315L23.4046 27.5292C23.322 27.6429 23.2887 27.785 23.3119 27.9237C23.3354 28.062 23.4136 28.1854 23.5288 28.2658C23.6439 28.3462 23.7868 28.3769 23.9247 28.3511C24.0631 28.3249 24.185 28.2449 24.2631 28.1279L27.191 23.9306C27.3061 23.7709 27.3215 23.5596 27.231 23.3846C27.1409 23.2096 26.9599 23.1001 26.7628 23.1016L26.7628 23.1016Z" fill="#128324"/>
<path d="M19.0469 43.3555C18.7579 43.3555 18.5234 43.5899 18.5234 43.879V50.4851C18.5234 51.0721 19.0103 51.559 19.5974 51.559H21.5309L21.7994 52.1464C22.0327 52.6576 22.493 52.9537 23.0546 52.9537H24.1703C24.732 52.9537 25.1923 52.6576 25.4256 52.1468V52.1472V52.1468L25.6937 51.5594H27.6272C28.2143 51.5594 28.7015 51.0725 28.7015 50.4854V43.879C28.7011 43.5899 28.4671 43.3555 28.178 43.3555L19.0469 43.3555ZM19.5704 44.4025H27.6546V50.4851C27.6546 50.5057 27.6482 50.512 27.6273 50.512H25.3572V50.5124C25.1523 50.5124 24.9661 50.632 24.8808 50.8186L24.4733 51.7119C24.4538 51.7542 24.2164 51.9067 24.1704 51.9067H23.0546C23.0086 51.9067 22.7708 51.7542 22.7517 51.7119V51.7123V51.7119L22.3438 50.8183V50.8186C22.2585 50.632 22.0723 50.5124 21.8674 50.5124H19.5973C19.5768 50.5124 19.5704 50.506 19.5704 50.4855L19.5704 44.4025Z" fill="#128324"/>
<path d="M23.6109 6.02381C14.3937 6.02381 6.90039 13.5168 6.90039 22.7343C6.90039 27.4301 9.22284 32.0368 11.8354 35.8571C14.4484 39.6778 17.3859 42.7365 18.6468 44.2157L18.6471 44.2153C18.7466 44.332 18.8924 44.3993 19.0457 44.3993H28.1769H28.1766C28.3302 44.3993 28.4757 44.332 28.5752 44.2153C29.836 42.7361 32.7739 39.6775 35.3865 35.8567C37.9995 32.036 40.3219 27.4293 40.3219 22.734C40.3219 13.5164 32.8286 6.02344 23.6114 6.02344L23.6109 6.02381ZM23.6109 7.07084C32.2616 7.07084 39.2752 14.0838 39.2752 22.7341C39.2752 27.0806 37.0761 31.5325 34.5227 35.2663C32.0402 38.8963 29.3035 41.7729 27.9401 43.3531H19.283C17.9194 41.7728 15.183 38.8963 12.7005 35.2663C10.147 31.5327 7.94799 27.0808 7.94799 22.7341C7.94799 14.0835 14.9609 7.07084 23.6113 7.07084H23.6109Z" fill="#128324"/>
<path d="M23.6036 0.250065C23.3149 0.254553 23.0842 0.491988 23.0879 0.780663V2.17201C23.0861 2.31223 23.1403 2.44722 23.2386 2.54706C23.3373 2.6469 23.4716 2.70298 23.6114 2.70298C23.7516 2.70298 23.8859 2.64689 23.9842 2.54706C24.0829 2.44722 24.1372 2.31224 24.1349 2.17201V0.780663C24.1372 0.639317 24.0818 0.503217 23.9816 0.403003C23.8814 0.303163 23.7453 0.247826 23.6036 0.250065H23.6036Z" fill="#128324"/>
<path d="M1.33761 23.2618C1.19739 23.2595 1.0624 23.3138 0.962565 23.4125C0.862725 23.5108 0.806641 23.6451 0.806641 23.7853C0.806641 23.9251 0.862729 24.0597 0.962565 24.1581C1.0624 24.2564 1.19738 24.3106 1.33761 24.3088H2.72857C2.86879 24.3106 3.00378 24.2564 3.10362 24.1581C3.20346 24.0597 3.25954 23.9251 3.25954 23.7853C3.25954 23.6451 3.20345 23.5108 3.10362 23.4125C3.00378 23.3138 2.8688 23.2595 2.72857 23.2618H1.33761Z" fill="#128324"/>
<path d="M7.3339 7C7.12113 7 6.92931 7.12938 6.84892 7.32681C6.7689 7.52424 6.81639 7.75047 6.96932 7.89891L7.9527 8.88267C8.15723 9.0872 8.48891 9.0872 8.69344 8.88267C8.79141 8.78471 8.84676 8.65121 8.84676 8.51249C8.84676 8.37376 8.79141 8.24065 8.69344 8.1423L7.70968 7.15855C7.61097 7.05721 7.47561 7.00001 7.33389 7.00001L7.3339 7Z" fill="#128324"/>
<path d="M9.00858 37.8362C8.87247 37.8403 8.74347 37.8972 8.64887 37.9944L7.66512 38.9777V38.9781C7.46059 39.1826 7.46059 39.5139 7.66512 39.7185C7.86965 39.923 8.20095 39.923 8.40548 39.7185L9.38885 38.7347C9.54402 38.5844 9.59039 38.3541 9.50626 38.1551C9.42213 37.9562 9.22433 37.8295 9.00858 37.8362V37.8362Z" fill="#128324"/>
<path d="M44.4782 23.2618C44.338 23.2595 44.203 23.3138 44.1032 23.4125C44.0034 23.5108 43.9473 23.6451 43.9473 23.7853C43.9473 23.9251 44.0034 24.0597 44.1032 24.1581C44.203 24.2564 44.338 24.3106 44.4782 24.3088H45.8692C46.0094 24.3106 46.1444 24.2564 46.2442 24.1581C46.3441 24.0597 46.4002 23.9251 46.4002 23.7853C46.4002 23.6451 46.3441 23.5108 46.2442 23.4125C46.1444 23.3138 46.0094 23.2595 45.8692 23.2618H44.4782Z" fill="#128324"/>
<path d="M39.8579 7.00026C39.7222 7.00399 39.5932 7.06083 39.4982 7.15842L38.5144 8.14217C38.3103 8.34671 38.3103 8.67801 38.5144 8.88254C38.719 9.08707 39.0507 9.08707 39.2552 8.88254L40.2386 7.89879C40.3934 7.74847 40.4401 7.51813 40.356 7.31921C40.2715 7.12028 40.074 6.99353 39.8579 7.00026Z" fill="#128324"/>
<path d="M38.1835 37.8359C37.9704 37.8359 37.7785 37.9653 37.6985 38.1627C37.6185 38.3602 37.666 38.5864 37.8189 38.7349L38.8023 39.7186C39.0068 39.9231 39.3381 39.9231 39.5426 39.7186C39.7472 39.5141 39.7472 39.1828 39.5426 38.9782L38.5589 37.9949V37.9945C38.4602 37.8932 38.3248 37.836 38.1835 37.836L38.1835 37.8359Z" fill="#128324"/>
</svg>
