<svg width="43" height="56" viewBox="0 0 43 56" fill="none" xmlns="http://www.w3.org/2000/svg">
<path d="M42.4739 10.7608H34.209C33.9239 10.7608 33.6924 10.9923 33.6924 11.2774V16.9595H30.0765C29.7915 16.9595 29.56 17.191 29.56 17.476V33.4887H18.1957V19.5423C18.1957 17.156 16.3818 15.2064 14.0633 14.9458V9.21114C14.0633 8.92611 13.8318 8.69459 13.5467 8.69459H9.93083V0.946244C9.93083 0.661211 9.6993 0.429688 9.41427 0.429688C9.12924 0.429688 8.89771 0.661211 8.89771 0.946244V8.69459H5.28182C4.99679 8.69459 4.76526 8.92611 4.76526 9.21114V14.9458C2.44672 15.2059 0.632812 17.1555 0.632812 19.5423V54.6681C0.632812 54.9531 0.864336 55.1847 1.14937 55.1847H42.4739C42.7589 55.1847 42.9904 54.9531 42.9904 54.6681V11.2774C42.9904 10.9923 42.7589 10.7608 42.4739 10.7608ZM34.7255 11.7939H41.9573V16.9595H34.7255V11.7939ZM5.79838 9.7277H13.0302V14.8933H5.79838V9.7277ZM1.66593 19.5423C1.66593 17.5484 3.28797 15.9264 5.28182 15.9264H13.5467C15.5406 15.9264 17.1626 17.5484 17.1626 19.5423V54.151H1.66593V19.5423ZM18.1957 34.523H29.56V54.1521H18.1957V34.523ZM41.9573 54.1521H30.5931V17.9932H41.9573V54.1521Z" fill="#128324"/>
<path d="M25.9439 37.6211H21.8115C21.5264 37.6211 21.2949 37.8526 21.2949 38.1377C21.2949 38.4227 21.5264 38.6542 21.8115 38.6542H25.9439C26.229 38.6542 26.4605 38.4227 26.4605 38.1377C26.4605 37.8526 26.229 37.6211 25.9439 37.6211Z" fill="#128324"/>
<path d="M25.9439 41.7539H21.8115C21.5264 41.7539 21.2949 41.9854 21.2949 42.2705C21.2949 42.5555 21.5264 42.787 21.8115 42.787H25.9439C26.229 42.787 26.4605 42.5555 26.4605 42.2705C26.4605 41.9854 26.229 41.7539 25.9439 41.7539Z" fill="#128324"/>
<path d="M25.9439 45.8867H21.8115C21.5264 45.8867 21.2949 46.1182 21.2949 46.4033C21.2949 46.6883 21.5264 46.9198 21.8115 46.9198H25.9439C26.229 46.9198 26.4605 46.6883 26.4605 46.4033C26.4605 46.1182 26.229 45.8867 25.9439 45.8867Z" fill="#128324"/>
<path d="M25.9439 50.0195H21.8115C21.5264 50.0195 21.2949 50.2511 21.2949 50.5361C21.2949 50.8211 21.5264 51.0526 21.8115 51.0526H25.9439C26.229 51.0526 26.4605 50.8211 26.4605 50.5361C26.4605 50.2511 26.229 50.0195 25.9439 50.0195Z" fill="#128324"/>
<path d="M5.28218 21.0938C4.99715 21.0938 4.76562 21.3253 4.76562 21.6103V25.7428C4.76562 26.0278 4.99715 26.2593 5.28218 26.2593C5.56721 26.2593 5.79873 26.0278 5.79873 25.7428V21.6103C5.79873 21.3253 5.56721 21.0938 5.28218 21.0938Z" fill="#128324"/>
<path d="M9.415 21.0938C9.12996 21.0938 8.89844 21.3253 8.89844 21.6103V25.7428C8.89844 26.0278 9.12996 26.2593 9.415 26.2593C9.70003 26.2593 9.93155 26.0278 9.93155 25.7428V21.6103C9.93155 21.3253 9.70003 21.0938 9.415 21.0938Z" fill="#128324"/>
<path d="M13.5459 21.0938C13.2608 21.0938 13.0293 21.3253 13.0293 21.6103V25.7428C13.0293 26.0278 13.2608 26.2593 13.5459 26.2593C13.8309 26.2593 14.0624 26.0278 14.0624 25.7428V21.6103C14.0624 21.3253 13.8309 21.0938 13.5459 21.0938Z" fill="#128324"/>
<path d="M9.415 29.3555C9.12996 29.3555 8.89844 29.587 8.89844 29.872V34.0045C8.89844 34.2895 9.12996 34.521 9.415 34.521C9.70003 34.521 9.93155 34.2895 9.93155 34.0045V29.872C9.93155 29.587 9.70003 29.3555 9.415 29.3555Z" fill="#128324"/>
<path d="M5.28218 29.3555C4.99715 29.3555 4.76562 29.587 4.76562 29.872V34.0045C4.76562 34.2895 4.99715 34.521 5.28218 34.521C5.56721 34.521 5.79873 34.2895 5.79873 34.0045V29.872C5.79873 29.587 5.56721 29.3555 5.28218 29.3555Z" fill="#128324"/>
<path d="M13.5459 29.3555C13.2608 29.3555 13.0293 29.587 13.0293 29.872V34.0045C13.0293 34.2895 13.2608 34.521 13.5459 34.521C13.8309 34.521 14.0624 34.2895 14.0624 34.0045V29.872C14.0624 29.587 13.8309 29.3555 13.5459 29.3555Z" fill="#128324"/>
<path d="M5.28218 37.6211C4.99715 37.6211 4.76562 37.8526 4.76562 38.1377V42.2701C4.76562 42.5551 4.99715 42.7867 5.28218 42.7867C5.56721 42.7867 5.79873 42.5551 5.79873 42.2701V38.1377C5.79873 37.8526 5.56721 37.6211 5.28218 37.6211Z" fill="#128324"/>
<path d="M9.415 37.6211C9.12996 37.6211 8.89844 37.8526 8.89844 38.1377V42.2701C8.89844 42.5551 9.12996 42.7867 9.415 42.7867C9.70003 42.7867 9.93155 42.5551 9.93155 42.2701V38.1377C9.93155 37.8526 9.70003 37.6211 9.415 37.6211Z" fill="#128324"/>
<path d="M13.5459 37.6211C13.2608 37.6211 13.0293 37.8526 13.0293 38.1377V42.2701C13.0293 42.5551 13.2608 42.7867 13.5459 42.7867C13.8309 42.7867 14.0624 42.5551 14.0624 42.2701V38.1377C14.0624 37.8526 13.8309 37.6211 13.5459 37.6211Z" fill="#128324"/>
<path d="M5.28218 45.8867C4.99715 45.8867 4.76562 46.1182 4.76562 46.4033V50.5357C4.76562 50.8208 4.99715 51.0523 5.28218 51.0523C5.56721 51.0523 5.79873 50.8208 5.79873 50.5357V46.4033C5.79873 46.1182 5.56721 45.8867 5.28218 45.8867Z" fill="#128324"/>
<path d="M9.415 45.8867C9.12996 45.8867 8.89844 46.1182 8.89844 46.4033V50.5357C8.89844 50.8208 9.12996 51.0523 9.415 51.0523C9.70003 51.0523 9.93155 50.8208 9.93155 50.5357V46.4033C9.93155 46.1182 9.70003 45.8867 9.415 45.8867Z" fill="#128324"/>
<path d="M13.5459 45.8867C13.2608 45.8867 13.0293 46.1182 13.0293 46.4033V50.5357C13.0293 50.8208 13.2608 51.0523 13.5459 51.0523C13.8309 51.0523 14.0624 50.8208 14.0624 50.5357V46.4033C14.0624 46.1182 13.8309 45.8867 13.5459 45.8867Z" fill="#128324"/>
<path d="M33.6934 21.6103V25.7428C33.6934 26.0278 33.9249 26.2593 34.2099 26.2593C34.4949 26.2593 34.7265 26.0278 34.7265 25.7428V21.6103C34.7265 21.3253 34.4949 21.0938 34.2099 21.0938C33.9249 21.0938 33.6934 21.3253 33.6934 21.6103Z" fill="#128324"/>
<path d="M38.3408 26.2593C38.6258 26.2593 38.8573 26.0278 38.8573 25.7428V21.6103C38.8573 21.3253 38.6258 21.0938 38.3408 21.0938C38.0557 21.0938 37.8242 21.3253 37.8242 21.6103V25.7428C37.8242 26.0278 38.0557 26.2593 38.3408 26.2593Z" fill="#128324"/>
<path d="M34.2099 29.3555C33.9249 29.3555 33.6934 29.587 33.6934 29.872V34.0045C33.6934 34.2895 33.9249 34.521 34.2099 34.521C34.4949 34.521 34.7265 34.2895 34.7265 34.0045V29.872C34.7265 29.587 34.4949 29.3555 34.2099 29.3555Z" fill="#128324"/>
<path d="M38.3408 34.521C38.6258 34.521 38.8573 34.2895 38.8573 34.0045V29.872C38.8573 29.587 38.6258 29.3555 38.3408 29.3555C38.0557 29.3555 37.8242 29.587 37.8242 29.872V34.0045C37.8242 34.2895 38.0557 34.521 38.3408 34.521Z" fill="#128324"/>
<path d="M34.2099 37.6211C33.9249 37.6211 33.6934 37.8526 33.6934 38.1377V42.2701C33.6934 42.5551 33.9249 42.7867 34.2099 42.7867C34.4949 42.7867 34.7265 42.5551 34.7265 42.2701V38.1377C34.7265 37.8526 34.4949 37.6211 34.2099 37.6211Z" fill="#128324"/>
<path d="M38.3408 42.7867C38.6258 42.7867 38.8573 42.5551 38.8573 42.2701V38.1377C38.8573 37.8526 38.6258 37.6211 38.3408 37.6211C38.0557 37.6211 37.8242 37.8526 37.8242 38.1377V42.2701C37.8242 42.5551 38.0557 42.7867 38.3408 42.7867Z" fill="#128324"/>
<path d="M34.2099 45.8867C33.9249 45.8867 33.6934 46.1182 33.6934 46.4033V50.5357C33.6934 50.8208 33.9249 51.0523 34.2099 51.0523C34.4949 51.0523 34.7265 50.8208 34.7265 50.5357V46.4033C34.7265 46.1182 34.4949 45.8867 34.2099 45.8867Z" fill="#128324"/>
<path d="M38.3408 51.0523C38.6258 51.0523 38.8573 50.8208 38.8573 50.5357V46.4033C38.8573 46.1182 38.6258 45.8867 38.3408 45.8867C38.0557 45.8867 37.8242 46.1182 37.8242 46.4033V50.5357C37.8242 50.8208 38.0557 51.0523 38.3408 51.0523Z" fill="#128324"/>
</svg>
