<svg width="1280" height="469" viewBox="0 0 1280 469" fill="none" xmlns="http://www.w3.org/2000/svg">
<g clip-path="url(#clip0_618_9182)">
<rect width="1280" height="469" rx="8" fill="url(#paint0_linear_618_9182)"/>
<g clip-path="url(#clip1_618_9182)">
<g opacity="0.3">
<g opacity="0.6">
<path opacity="0.5" d="M14.0007 4.01794C14.0007 5.77413 12.5671 7.20776 10.8109 7.20776C9.05472 7.20776 7.62109 5.77413 7.62109 4.01794C7.62109 2.26175 9.05472 0.828125 10.8109 0.828125C12.5671 0.828125 14.0007 2.26175 14.0007 4.01794Z" fill="#F7FCFA"/>
<path opacity="0.5" d="M38.2484 7.20776C40.0101 7.20776 41.4382 5.77963 41.4382 4.01794C41.4382 2.25625 40.0101 0.828125 38.2484 0.828125C36.4867 0.828125 35.0586 2.25625 35.0586 4.01794C35.0586 5.77963 36.4867 7.20776 38.2484 7.20776Z" fill="#F7FCFA"/>
<path opacity="0.5" d="M65.6644 7.20776C67.4261 7.20776 68.8542 5.77963 68.8542 4.01794C68.8542 2.25625 67.4261 0.828125 65.6644 0.828125C63.9027 0.828125 62.4746 2.25625 62.4746 4.01794C62.4746 5.77963 63.9027 7.20776 65.6644 7.20776Z" fill="#F7FCFA"/>
<path opacity="0.5" d="M96.2898 4.01794C96.2898 5.77413 94.8562 7.20776 93.1 7.20776C91.3438 7.20776 89.9102 5.77413 89.9102 4.01794C89.9102 2.26175 91.3438 0.828125 93.1 0.828125C94.8562 0.828125 96.2898 2.26175 96.2898 4.01794Z" fill="#F7FCFA"/>
<path opacity="0.5" d="M120.518 7.20776C122.28 7.20776 123.708 5.77963 123.708 4.01794C123.708 2.25625 122.28 0.828125 120.518 0.828125C118.756 0.828125 117.328 2.25625 117.328 4.01794C117.328 5.77963 118.756 7.20776 120.518 7.20776Z" fill="#F7FCFA"/>
<path opacity="0.5" d="M147.955 7.20776C149.717 7.20776 151.145 5.77963 151.145 4.01794C151.145 2.25625 149.717 0.828125 147.955 0.828125C146.194 0.828125 144.766 2.25625 144.766 4.01794C144.766 5.77963 146.194 7.20776 147.955 7.20776Z" fill="#F7FCFA"/>
<path opacity="0.5" d="M175.373 7.20776C177.135 7.20776 178.563 5.77963 178.563 4.01794C178.563 2.25625 177.135 0.828125 175.373 0.828125C173.612 0.828125 172.184 2.25625 172.184 4.01794C172.184 5.77963 173.612 7.20776 175.373 7.20776Z" fill="#F7FCFA"/>
<path opacity="0.5" d="M202.81 7.20776C204.572 7.20776 206 5.77963 206 4.01794C206 2.25625 204.572 0.828125 202.81 0.828125C201.048 0.828125 199.62 2.25625 199.62 4.01794C199.62 5.77963 201.048 7.20776 202.81 7.20776Z" fill="#F7FCFA"/>
<path opacity="0.5" d="M14.0007 31.4554C14.0007 33.2116 12.5671 34.6453 10.8109 34.6453C9.05472 34.6453 7.62109 33.2116 7.62109 31.4554C7.62109 29.6992 9.05472 28.2656 10.8109 28.2656C12.5671 28.2656 14.0007 29.6813 14.0007 31.4554Z" fill="#F7FCFA"/>
<path opacity="0.5" d="M38.2484 34.6453C40.0101 34.6453 41.4382 33.2171 41.4382 31.4554C41.4382 29.6938 40.0101 28.2656 38.2484 28.2656C36.4867 28.2656 35.0586 29.6938 35.0586 31.4554C35.0586 33.2171 36.4867 34.6453 38.2484 34.6453Z" fill="#F7FCFA"/>
<path opacity="0.5" d="M65.6644 34.6453C67.4261 34.6453 68.8542 33.2171 68.8542 31.4554C68.8542 29.6938 67.4261 28.2656 65.6644 28.2656C63.9027 28.2656 62.4746 29.6938 62.4746 31.4554C62.4746 33.2171 63.9027 34.6453 65.6644 34.6453Z" fill="#F7FCFA"/>
<path opacity="0.5" d="M96.2898 31.4554C96.2898 33.2116 94.8562 34.6453 93.1 34.6453C91.3438 34.6453 89.9102 33.2116 89.9102 31.4554C89.9102 29.6992 91.3438 28.2656 93.1 28.2656C94.8562 28.2656 96.2898 29.6813 96.2898 31.4554Z" fill="#F7FCFA"/>
<path opacity="0.5" d="M120.518 34.6453C122.28 34.6453 123.708 33.2171 123.708 31.4554C123.708 29.6938 122.28 28.2656 120.518 28.2656C118.756 28.2656 117.328 29.6938 117.328 31.4554C117.328 33.2171 118.756 34.6453 120.518 34.6453Z" fill="#F7FCFA"/>
<path opacity="0.5" d="M147.955 34.6453C149.717 34.6453 151.145 33.2171 151.145 31.4554C151.145 29.6938 149.717 28.2656 147.955 28.2656C146.194 28.2656 144.766 29.6938 144.766 31.4554C144.766 33.2171 146.194 34.6453 147.955 34.6453Z" fill="#F7FCFA"/>
<path opacity="0.5" d="M175.373 34.6453C177.135 34.6453 178.563 33.2171 178.563 31.4554C178.563 29.6938 177.135 28.2656 175.373 28.2656C173.612 28.2656 172.184 29.6938 172.184 31.4554C172.184 33.2171 173.612 34.6453 175.373 34.6453Z" fill="#F7FCFA"/>
<path opacity="0.5" d="M202.81 34.6453C204.572 34.6453 206 33.2171 206 31.4554C206 29.6938 204.572 28.2656 202.81 28.2656C201.048 28.2656 199.62 29.6938 199.62 31.4554C199.62 33.2171 201.048 34.6453 202.81 34.6453Z" fill="#F7FCFA"/>
</g>
<g opacity="0.5">
<path opacity="0.5" d="M753.216 15.3265C753.216 17.0827 751.782 18.5163 750.026 18.5163C748.27 18.5163 746.836 17.0827 746.836 15.3265C746.836 13.5703 748.27 12.1367 750.026 12.1367C751.782 12.1367 753.216 13.5703 753.216 15.3265Z" fill="white"/>
<path opacity="0.5" d="M780.652 15.3265C780.652 17.0827 779.218 18.5163 777.462 18.5163C775.706 18.5163 774.272 17.0827 774.272 15.3265C774.272 13.5703 775.706 12.1367 777.462 12.1367C779.218 12.1546 780.652 13.5703 780.652 15.3265Z" fill="white"/>
<path opacity="0.5" d="M808.07 15.3265C808.07 17.0827 806.636 18.5163 804.88 18.5163C803.124 18.5163 801.69 17.0827 801.69 15.3265C801.69 13.5703 803.124 12.1367 804.88 12.1367C806.636 12.1367 808.07 13.5703 808.07 15.3265Z" fill="white"/>
</g>
<g opacity="0.5">
<path opacity="0.5" d="M497.133 204.17C497.133 205.926 495.699 207.36 493.943 207.36C492.187 207.36 490.753 205.926 490.753 204.17C490.753 202.414 492.187 200.98 493.943 200.98C495.717 200.98 497.133 202.396 497.133 204.17Z" fill="white"/>
<path opacity="0.5" d="M521.378 207.36C523.14 207.36 524.568 205.932 524.568 204.17C524.568 202.409 523.14 200.98 521.378 200.98C519.617 200.98 518.188 202.409 518.188 204.17C518.188 205.932 519.617 207.36 521.378 207.36Z" fill="white"/>
<path opacity="0.5" d="M548.796 207.36C550.558 207.36 551.986 205.932 551.986 204.17C551.986 202.409 550.558 200.98 548.796 200.98C547.035 200.98 545.606 202.409 545.606 204.17C545.606 205.932 547.035 207.36 548.796 207.36Z" fill="white"/>
<path opacity="0.5" d="M497.133 231.588C497.133 233.345 495.699 234.778 493.943 234.778C492.187 234.778 490.753 233.345 490.753 231.588C490.753 229.832 492.187 228.398 493.943 228.398C495.717 228.398 497.133 229.832 497.133 231.588Z" fill="white"/>
<path opacity="0.5" d="M521.378 234.778C523.14 234.778 524.568 233.35 524.568 231.588C524.568 229.827 523.14 228.398 521.378 228.398C519.617 228.398 518.188 229.827 518.188 231.588C518.188 233.35 519.617 234.778 521.378 234.778Z" fill="white"/>
<path opacity="0.5" d="M548.796 234.778C550.558 234.778 551.986 233.35 551.986 231.588C551.986 229.827 550.558 228.398 548.796 228.398C547.035 228.398 545.606 229.827 545.606 231.588C545.606 233.35 547.035 234.778 548.796 234.778Z" fill="white"/>
<path opacity="0.5" d="M497.133 259.026C497.133 260.782 495.699 262.216 493.943 262.216C492.187 262.216 490.753 260.782 490.753 259.026C490.753 257.27 492.187 255.836 493.943 255.836C495.717 255.836 497.133 257.27 497.133 259.026Z" fill="white"/>
<path opacity="0.5" d="M524.568 259.026C524.568 260.782 523.135 262.216 521.378 262.216C519.622 262.216 518.188 260.782 518.188 259.026C518.188 257.27 519.622 255.836 521.378 255.836C523.135 255.836 524.568 257.27 524.568 259.026Z" fill="white"/>
<path opacity="0.5" d="M551.986 259.026C551.986 260.782 550.553 262.216 548.796 262.216C547.04 262.216 545.606 260.782 545.606 259.026C545.606 257.27 547.04 255.836 548.796 255.836C550.57 255.836 551.986 257.27 551.986 259.026Z" fill="white"/>
</g>
<path opacity="0.5" d="M75.5911 419.039C102.31 445.759 102.31 489.09 75.5911 515.827L-222.173 813.591C-248.892 840.31 -292.223 840.31 -318.961 813.591C-345.68 786.872 -345.68 743.541 -318.961 716.803L-21.1965 419.039C5.54059 392.32 48.8719 392.32 75.5911 419.039Z" fill="url(#paint1_linear_618_9182)"/>
<path opacity="0.5" d="M267.918 420.787C296.967 449.835 296.967 496.912 267.918 525.961L-39.039 832.9C-68.0879 861.949 -115.165 861.949 -144.213 832.9C-173.262 803.851 -173.262 756.775 -144.213 727.726L162.726 420.787C191.775 391.738 238.869 391.738 267.918 420.787Z" fill="url(#paint2_linear_618_9182)"/>
<path opacity="0.5" d="M1073.79 209.9C1044.74 180.851 1044.74 133.775 1073.79 104.726L1380.73 -202.213C1409.77 -231.262 1456.85 -231.262 1485.9 -202.213C1514.95 -173.165 1514.95 -126.088 1485.9 -97.039L1178.96 209.9C1149.91 238.931 1102.84 238.931 1073.79 209.9Z" fill="url(#paint3_linear_618_9182)"/>
<path opacity="0.5" d="M1003.47 15.6294C989.637 1.79491 989.637 -20.6234 1003.47 -34.44L1142.6 -173.573C1156.44 -187.408 1178.86 -187.408 1192.67 -173.573C1206.51 -159.739 1206.51 -137.321 1192.67 -123.504L1053.54 15.6294C1039.72 29.446 1017.31 29.446 1003.47 15.6294Z" fill="url(#paint4_linear_618_9182)"/>
<path opacity="0.5" d="M1230 272.43C1216.17 258.596 1216.17 236.177 1230 222.361L1369.14 83.2274C1382.97 69.3929 1405.39 69.3929 1419.21 83.2274C1433.04 97.0619 1433.04 119.48 1419.21 133.297L1280.07 272.43C1266.24 286.265 1243.82 286.265 1230 272.43Z" fill="url(#paint5_linear_618_9182)"/>
<g opacity="0.49">
<path opacity="0.49" d="M13.9053 15.623C17.9433 15.623 21.2167 12.3495 21.2167 8.31149C21.2167 4.27347 17.9433 1 13.9053 1C9.86725 1 6.59375 4.27347 6.59375 8.31149C6.59375 12.3495 9.86725 15.623 13.9053 15.623Z" stroke="white" stroke-width="3.58406" stroke-miterlimit="10" stroke-linecap="round" stroke-linejoin="round"/>
<path opacity="0.49" d="M285.506 143.558C285.506 147.59 282.226 150.869 278.194 150.869C274.162 150.869 270.883 147.59 270.883 143.558C270.883 139.526 274.162 136.246 278.194 136.246C282.244 136.246 285.506 139.508 285.506 143.558Z" stroke="white" stroke-width="3.58406" stroke-miterlimit="10" stroke-linecap="round" stroke-linejoin="round"/>
<g opacity="0.49">
<path opacity="0.49" d="M421.988 70.9413V83.7365" stroke="white" stroke-width="3.58406" stroke-miterlimit="10" stroke-linecap="round" stroke-linejoin="round"/>
<path opacity="0.49" d="M428.386 77.3398H415.608" stroke="white" stroke-width="3.58406" stroke-miterlimit="10" stroke-linecap="round" stroke-linejoin="round"/>
</g>
<g opacity="0.49">
<path opacity="0.49" d="M57.7559 382.629V395.406" stroke="white" stroke-width="3.58406" stroke-miterlimit="10" stroke-linecap="round" stroke-linejoin="round"/>
<path opacity="0.49" d="M64.1542 389.008H51.377" stroke="white" stroke-width="3.58406" stroke-miterlimit="10" stroke-linecap="round" stroke-linejoin="round"/>
</g>
<path opacity="0.49" d="M209.702 345.678L219.647 328.457H199.756L209.702 345.678Z" stroke="white" stroke-width="3.58406" stroke-miterlimit="10" stroke-linecap="round" stroke-linejoin="round"/>
<path opacity="0.49" d="M685.343 83.7383L675.397 100.96H695.289L685.343 83.7383Z" stroke="white" stroke-width="3.58406" stroke-miterlimit="10" stroke-linecap="round" stroke-linejoin="round"/>
<path opacity="0.49" d="M593.379 79.2416C597.716 74.9049 605.314 82.5031 609.651 78.1663C613.987 73.8296 606.389 66.2314 610.726 61.8947C615.062 57.558 622.661 65.1562 626.997 60.8195C631.334 56.4828 623.736 48.8846 628.055 44.5479C632.391 40.2111 639.99 47.8093 644.326 43.4726C648.663 39.1359 641.065 31.5377 645.402 27.1831C649.738 22.8463 657.337 30.4446 661.691 26.1078" stroke="white" stroke-width="3.58406" stroke-miterlimit="10" stroke-linecap="round" stroke-linejoin="round"/>
</g>
</g>
</g>
<g opacity="0.4">
<path d="M104.873 100.231C89.2431 129.496 55.9388 145.847 14.5944 148.53C-26.7411 151.213 -76.0304 140.22 -123.459 114.888C-170.888 89.5561 -207.433 54.7038 -228.19 18.8573C-248.952 -16.9969 -253.882 -53.7697 -238.252 -83.034C-222.622 -112.298 -189.317 -128.65 -147.973 -131.333C-106.637 -134.015 -57.3481 -123.023 -9.91944 -97.6908C37.5092 -72.3589 74.055 -37.5066 94.8119 -1.66008C115.573 34.1941 120.504 70.9669 104.873 100.231Z" stroke="#F7FCFA"/>
<path d="M88.8733 128.231C73.2431 157.496 39.9388 173.847 -1.40559 176.53C-42.7411 179.213 -92.0304 168.22 -139.459 142.888C-186.888 117.556 -223.433 82.7038 -244.19 46.8573C-264.952 11.0031 -269.882 -25.7697 -254.252 -55.034C-238.622 -84.2983 -205.317 -100.65 -163.973 -103.333C-122.637 -106.015 -73.3481 -95.0227 -25.9194 -69.6908C21.5092 -44.3589 58.055 -9.50659 78.8119 26.3399C99.5732 62.1941 104.504 98.9669 88.8733 128.231Z" stroke="#F7FCFA"/>
<path d="M87.651 173.845C71.2918 202.699 36.9702 217.857 -5.4415 218.927C-47.8417 219.997 -98.2335 206.975 -146.549 179.582C-194.865 152.188 -231.914 115.634 -252.769 78.7012C-273.629 41.7586 -278.245 4.52384 -261.886 -24.3302C-245.527 -53.1842 -211.205 -68.3422 -168.793 -69.412C-126.393 -70.4816 -76.0014 -57.46 -27.6857 -30.0666C20.63 -2.67325 57.6794 33.8814 78.5337 70.814C99.3936 107.757 104.01 144.991 87.651 173.845Z" stroke="#F7FCFA"/>
</g>
<path d="M1012.5 76L1013.06 85.1829L1021.54 82.9098L1013.41 86.3121L1018.08 94.0902L1012.5 87.01L1006.92 94.0902L1011.59 86.3121L1003.46 82.9098L1011.94 85.1829L1012.5 76Z" fill="#128324"/>
<g opacity="0.25">
<path opacity="0.5" d="M759.358 363.325C761.119 363.325 762.548 361.897 762.548 360.135C762.548 358.373 761.119 356.945 759.358 356.945C757.596 356.945 756.168 358.373 756.168 360.135C756.168 361.897 757.596 363.325 759.358 363.325Z" fill="white"/>
<path opacity="0.5" d="M759.358 404.704C761.119 404.704 762.548 403.276 762.548 401.514C762.548 399.752 761.119 398.324 759.358 398.324C757.596 398.324 756.168 399.752 756.168 401.514C756.168 403.276 757.596 404.704 759.358 404.704Z" fill="white"/>
<path opacity="0.5" d="M759.358 446.083C761.119 446.083 762.548 444.655 762.548 442.893C762.548 441.131 761.119 439.703 759.358 439.703C757.596 439.703 756.168 441.131 756.168 442.893C756.168 444.655 757.596 446.083 759.358 446.083Z" fill="white"/>
<path opacity="0.5" d="M731.941 363.325C730.185 363.325 728.751 361.891 728.751 360.135C728.751 358.379 730.185 356.945 731.941 356.945C733.697 356.945 735.131 358.379 735.131 360.135C735.113 361.891 733.697 363.325 731.941 363.325Z" fill="white"/>
<path opacity="0.5" d="M731.941 404.704C730.185 404.704 728.751 403.27 728.751 401.514C728.751 399.758 730.185 398.324 731.941 398.324C733.697 398.324 735.131 399.758 735.131 401.514C735.113 403.288 733.697 404.704 731.941 404.704Z" fill="white"/>
<path opacity="0.5" d="M731.941 446.083C730.185 446.083 728.751 444.649 728.751 442.893C728.751 441.137 730.185 439.703 731.941 439.703C733.697 439.703 735.131 441.137 735.131 442.893C735.113 444.649 733.697 446.083 731.941 446.083Z" fill="white"/>
<path opacity="0.5" d="M704.505 363.325C706.267 363.325 707.695 361.897 707.695 360.135C707.695 358.373 706.267 356.945 704.505 356.945C702.744 356.945 701.315 358.373 701.315 360.135C701.315 361.897 702.744 363.325 704.505 363.325Z" fill="white"/>
<path opacity="0.5" d="M704.505 404.704C706.267 404.704 707.695 403.276 707.695 401.514C707.695 399.752 706.267 398.324 704.505 398.324C702.744 398.324 701.315 399.752 701.315 401.514C701.315 403.276 702.744 404.704 704.505 404.704Z" fill="white"/>
<path opacity="0.5" d="M704.505 446.083C706.267 446.083 707.695 444.655 707.695 442.893C707.695 441.131 706.267 439.703 704.505 439.703C702.744 439.703 701.315 441.131 701.315 442.893C701.315 444.655 702.744 446.083 704.505 446.083Z" fill="white"/>
<path opacity="0.5" d="M677.069 363.325C678.83 363.325 680.259 361.897 680.259 360.135C680.259 358.373 678.83 356.945 677.069 356.945C675.307 356.945 673.879 358.373 673.879 360.135C673.879 361.897 675.307 363.325 677.069 363.325Z" fill="white"/>
<path opacity="0.5" d="M677.069 404.704C678.83 404.704 680.259 403.276 680.259 401.514C680.259 399.752 678.83 398.324 677.069 398.324C675.307 398.324 673.879 399.752 673.879 401.514C673.879 403.276 675.307 404.704 677.069 404.704Z" fill="white"/>
<path opacity="0.5" d="M677.069 446.083C678.83 446.083 680.259 444.655 680.259 442.893C680.259 441.131 678.83 439.703 677.069 439.703C675.307 439.703 673.879 441.131 673.879 442.893C673.879 444.655 675.307 446.083 677.069 446.083Z" fill="white"/>
<path opacity="0.5" d="M649.652 363.325C651.413 363.325 652.842 361.897 652.842 360.135C652.842 358.373 651.413 356.945 649.652 356.945C647.89 356.945 646.462 358.373 646.462 360.135C646.462 361.897 647.89 363.325 649.652 363.325Z" fill="white"/>
<path opacity="0.5" d="M649.652 404.704C651.413 404.704 652.842 403.276 652.842 401.514C652.842 399.752 651.413 398.324 649.652 398.324C647.89 398.324 646.462 399.752 646.462 401.514C646.462 403.276 647.89 404.704 649.652 404.704Z" fill="white"/>
<path opacity="0.5" d="M649.652 446.083C651.413 446.083 652.842 444.655 652.842 442.893C652.842 441.131 651.413 439.703 649.652 439.703C647.89 439.703 646.462 441.131 646.462 442.893C646.462 444.655 647.89 446.083 649.652 446.083Z" fill="white"/>
<path opacity="0.5" d="M622.215 363.325C623.977 363.325 625.405 361.897 625.405 360.135C625.405 358.373 623.977 356.945 622.215 356.945C620.454 356.945 619.025 358.373 619.025 360.135C619.025 361.897 620.454 363.325 622.215 363.325Z" fill="white"/>
<path opacity="0.5" d="M622.215 404.704C623.977 404.704 625.405 403.276 625.405 401.514C625.405 399.752 623.977 398.324 622.215 398.324C620.454 398.324 619.025 399.752 619.025 401.514C619.025 403.276 620.454 404.704 622.215 404.704Z" fill="white"/>
<path opacity="0.5" d="M622.215 446.083C623.977 446.083 625.405 444.655 625.405 442.893C625.405 441.131 623.977 439.703 622.215 439.703C620.454 439.703 619.025 441.131 619.025 442.893C619.025 444.655 620.454 446.083 622.215 446.083Z" fill="white"/>
</g>
</g>
<defs>
<linearGradient id="paint0_linear_618_9182" x1="-102" y1="-39" x2="1105.61" y2="1355.4" gradientUnits="userSpaceOnUse">
<stop stop-color="#128324"/>
<stop offset="0.0001" stop-color="#04D419"/>
<stop offset="0.209169" stop-color="#128324" stop-opacity="0.9"/>
<stop offset="0.50841" stop-color="#128324"/>
<stop offset="0.712024" stop-color="#8E8635" stop-opacity="0.8"/>
</linearGradient>
<linearGradient id="paint1_linear_618_9182" x1="75.6001" y1="419.045" x2="-318.95" y2="813.595" gradientUnits="userSpaceOnUse">
<stop stop-color="white"/>
<stop offset="1" stop-opacity="0"/>
</linearGradient>
<linearGradient id="paint2_linear_618_9182" x1="267.91" y1="420.782" x2="-144.207" y2="832.898" gradientUnits="userSpaceOnUse">
<stop stop-color="white"/>
<stop offset="1" stop-opacity="0"/>
</linearGradient>
<linearGradient id="paint3_linear_618_9182" x1="1073.79" y1="209.892" x2="1485.9" y2="-202.225" gradientUnits="userSpaceOnUse">
<stop stop-color="white"/>
<stop offset="1" stop-opacity="0"/>
</linearGradient>
<linearGradient id="paint4_linear_618_9182" x1="1003.47" y1="15.6208" x2="1192.68" y2="-173.593" gradientUnits="userSpaceOnUse">
<stop stop-color="white"/>
<stop offset="1" stop-opacity="0"/>
</linearGradient>
<linearGradient id="paint5_linear_618_9182" x1="1229.99" y1="272.428" x2="1419.21" y2="83.2143" gradientUnits="userSpaceOnUse">
<stop stop-color="white"/>
<stop offset="1" stop-opacity="0"/>
</linearGradient>
<clipPath id="clip0_618_9182">
<rect width="1280" height="469" rx="8" fill="white"/>
</clipPath>
<clipPath id="clip1_618_9182">
<rect width="1344.02" height="890.64" fill="white" transform="translate(-38 -142.641)"/>
</clipPath>
</defs>
</svg>
