<svg width="81" height="21" viewBox="0 0 81 21" fill="none" xmlns="http://www.w3.org/2000/svg">
<path d="M16.3386 19.7794H11.9246L7.25909 11.7615H4.18602V19.7794H0.38658L0.358643 0.223495H7.90165C9.81999 0.223495 11.3472 0.754299 12.4833 1.81591C13.6381 2.85889 14.2154 4.25574 14.2154 6.00646C14.2154 7.10532 13.9454 8.10174 13.4052 8.99573C12.8651 9.87109 12.1108 10.5509 11.1423 11.0351L16.3386 19.7794ZM4.18602 3.49213V8.49286H7.31497C8.28345 8.49286 9.03775 8.27868 9.57787 7.85031C10.118 7.40332 10.388 6.7887 10.388 6.00646C10.388 5.22423 10.118 4.60961 9.57787 4.16262C9.03775 3.71563 8.28345 3.49213 7.31497 3.49213H4.18602Z" fill="black"/>
<path d="M29.3619 12.2644C29.3619 12.8231 29.3433 13.2887 29.306 13.6612H18.8575C19.0065 14.7228 19.407 15.5516 20.0588 16.1476C20.7107 16.7436 21.5395 17.0416 22.5452 17.0416C23.3647 17.0416 24.0538 16.8554 24.6126 16.4829C25.1713 16.1104 25.5438 15.5796 25.7301 14.8904L29.0266 15.7844C28.6355 17.1068 27.8626 18.1405 26.7079 18.8854C25.5531 19.6304 24.147 20.0029 22.4894 20.0029C20.273 20.0029 18.5223 19.2859 17.2372 17.8518C15.9707 16.399 15.3375 14.6949 15.3375 12.7393C15.3375 10.7651 15.9428 9.06091 17.1534 7.62681C18.3826 6.19271 20.0961 5.47566 22.2938 5.47566C24.5288 5.47566 26.2609 6.16477 27.4901 7.543C28.738 8.90261 29.3619 10.4764 29.3619 12.2644ZM18.9414 11.091H25.5904C25.4973 10.2156 25.1713 9.50791 24.6126 8.96779C24.0538 8.42768 23.2809 8.15762 22.2938 8.15762C21.4184 8.15762 20.6828 8.40905 20.0868 8.91192C19.5094 9.41478 19.1276 10.1411 18.9414 11.091Z" fill="black"/>
<path d="M43.8979 12.2644C43.8979 12.8231 43.8792 13.2887 43.842 13.6612H33.3935C33.5425 14.7228 33.943 15.5516 34.5948 16.1476C35.2467 16.7436 36.0755 17.0416 37.0812 17.0416C37.9007 17.0416 38.5898 16.8554 39.1486 16.4829C39.7073 16.1104 40.0798 15.5796 40.2661 14.8904L43.5626 15.7844C43.1715 17.1068 42.3986 18.1405 41.2439 18.8854C40.0891 19.6304 38.683 20.0029 37.0254 20.0029C34.809 20.0029 33.0583 19.2859 31.7732 17.8518C30.5067 16.399 29.8735 14.6949 29.8735 12.7393C29.8735 10.7651 30.4788 9.06091 31.6894 7.62681C32.9186 6.19271 34.6321 5.47566 36.8298 5.47566C39.0648 5.47566 40.7969 6.16477 42.0261 7.543C43.2739 8.90261 43.8979 10.4764 43.8979 12.2644ZM33.4774 11.091H40.1264C40.0333 10.2156 39.7073 9.50791 39.1486 8.96779C38.5898 8.42768 37.8169 8.15762 36.8298 8.15762C35.9544 8.15762 35.2188 8.40905 34.6228 8.91192C34.0454 9.41478 33.6636 10.1411 33.4774 11.091Z" fill="black"/>
<path d="M51.1144 20.0029C49.0284 20.0029 47.3894 19.3417 46.1974 18.0194C45.0055 16.6784 44.4095 14.9184 44.4095 12.7393C44.4095 10.5602 45.0055 8.80948 46.1974 7.48713C47.3894 6.14615 49.0098 5.47566 51.0585 5.47566C52.8651 5.47566 54.2247 6.07165 55.1373 7.26363V0H58.6574V19.7794H55.1373V18.1591C54.7834 18.7178 54.2433 19.1648 53.5169 19.5001C52.7906 19.8353 51.9897 20.0029 51.1144 20.0029ZM51.6172 16.9578C52.7533 16.9578 53.6566 16.576 54.3271 15.8124C55.0162 15.0301 55.3608 14.0058 55.3608 12.7393C55.3608 11.4728 55.0162 10.4578 54.3271 9.69415C53.6566 8.91192 52.7533 8.5208 51.6172 8.5208C50.4997 8.5208 49.5965 8.91192 48.9073 9.69415C48.2368 10.4578 47.9016 11.4728 47.9016 12.7393C47.9016 14.0058 48.2368 15.0301 48.9073 15.8124C49.5965 16.576 50.4997 16.9578 51.6172 16.9578Z" fill="black"/>
<path d="M66.6325 20.0029C64.5466 20.0029 62.9076 19.3417 61.7156 18.0194C60.5236 16.6784 59.9276 14.9184 59.9276 12.7393C59.9276 10.5602 60.5236 8.80948 61.7156 7.48713C62.9076 6.14615 64.5279 5.47566 66.5766 5.47566C68.3832 5.47566 69.7428 6.07165 70.6554 7.26363V0H74.1755V19.7794H70.6554V18.1591C70.3016 18.7178 69.7615 19.1648 69.0351 19.5001C68.3087 19.8353 67.5079 20.0029 66.6325 20.0029ZM67.1354 16.9578C68.2715 16.9578 69.1748 16.576 69.8453 15.8124C70.5344 15.0301 70.8789 14.0058 70.8789 12.7393C70.8789 11.4728 70.5344 10.4578 69.8453 9.69415C69.1748 8.91192 68.2715 8.5208 67.1354 8.5208C66.0179 8.5208 65.1146 8.91192 64.4255 9.69415C63.755 10.4578 63.4198 11.4728 63.4198 12.7393C63.4198 14.0058 63.755 15.0301 64.4255 15.8124C65.1146 16.576 66.0179 16.9578 67.1354 16.9578Z" fill="black"/>
<path d="M76.2001 19.7794V5.69916H79.7201V19.7794H76.2001Z" fill="black"/>
<circle cx="77.8753" cy="2.1423" r="2.1423" fill="#128324"/>
</svg>
