<svg width="32" height="33" viewBox="0 0 32 33" fill="none" xmlns="http://www.w3.org/2000/svg">
<path d="M15.9998 29.4673C23.3638 29.4673 29.3332 23.5899 29.3332 16.3391C29.3332 9.08844 23.3638 3.21094 15.9998 3.21094C8.63584 3.21094 2.6665 9.08844 2.6665 16.3391C2.6665 23.5899 8.63584 29.4673 15.9998 29.4673Z" stroke="#128324" stroke-width="2" stroke-linecap="round" stroke-linejoin="round"/>
<path d="M15.948 21.6979C14.9493 21.6979 14.1233 21.4366 13.47 20.9139C12.8167 20.3913 12.4433 19.6959 12.35 18.8279L13.862 18.5899C13.9273 19.0939 14.1513 19.4999 14.534 19.8079C14.9167 20.1066 15.388 20.2559 15.948 20.2559C16.5453 20.2559 17.026 20.0926 17.39 19.7659C17.754 19.4299 17.936 18.9913 17.936 18.4499C17.936 17.8899 17.7633 17.4559 17.418 17.1479C17.0727 16.8306 16.6013 16.6719 16.004 16.6719C15.5747 16.6719 15.2107 16.7746 14.912 16.9799L14.24 15.9159L17.096 13.2139H12.63V11.7859H19.028V13.1439L16.396 15.5799C17.348 15.5239 18.118 15.7619 18.706 16.2939C19.3033 16.8259 19.602 17.5586 19.602 18.4919C19.602 19.4533 19.266 20.2279 18.594 20.8159C17.9313 21.4039 17.0493 21.6979 15.948 21.6979Z" fill="#128324"/>
</svg>
