<svg width="32" height="32" viewBox="0 0 32 32" fill="none" xmlns="http://www.w3.org/2000/svg">
<path d="M15.9998 29.1744C23.3638 29.1744 29.3332 23.2969 29.3332 16.0462C29.3332 8.79547 23.3638 2.91797 15.9998 2.91797C8.63584 2.91797 2.6665 8.79547 2.6665 16.0462C2.6665 23.2969 8.63584 29.1744 15.9998 29.1744Z" stroke="#128324" stroke-width="2" stroke-linecap="round" stroke-linejoin="round"/>
<path d="M12.406 20.293V18.935L15.962 15.897C17.0167 15.001 17.544 14.175 17.544 13.419C17.544 12.9336 17.39 12.5463 17.082 12.257C16.7833 11.9583 16.3773 11.809 15.864 11.809C15.2573 11.809 14.7953 12.019 14.478 12.439C14.1607 12.8496 14.0347 13.3956 14.1 14.077L12.518 13.965C12.434 12.9383 12.7093 12.0843 13.344 11.403C13.988 10.7216 14.828 10.381 15.864 10.381C16.872 10.381 17.6793 10.661 18.286 11.221C18.902 11.7716 19.21 12.5043 19.21 13.419C19.21 14.0163 19.028 14.6043 18.664 15.183C18.3 15.7523 17.726 16.3543 16.942 16.989L14.702 18.851H19.196V20.293H12.406Z" fill="#128324"/>
</svg>
